<svg xmlns="http://www.w3.org/2000/svg" viewBox="0 0 100 100" width="100" height="100">
  <defs>
    <clipPath id="circleClip4"><circle cx="50" cy="50" r="48"/></clipPath>
  </defs>
  <circle cx="50" cy="50" r="48" fill="#e9d5ff"/>
  <g clip-path="url(#circleClip4)">
    <rect width="100" height="100" fill="#f5f3ff"/>
    <!-- Torso -->
    <path d="M15 105 C18 78 32 70 50 70 C68 70 82 78 85 105 Z" fill="#4338ca"/>
    <rect x="44" y="54" width="12" height="18" fill="#fcd3b8" rx="4"/>
    <ellipse cx="50" cy="42" rx="19" ry="21" fill="#fcd3b8"/>
    <!-- Short Brown Hair & Beard -->
    <path d="M30 38 C30 20 38 14 50 14 C62 14 70 20 70 38 C70 42 66 40 64 36 C58 32 42 32 36 36 C34 40 30 42 30 38 Z" fill="#52301e"/>
    <!-- Beard & Stubble -->
    <path d="M34 44 C34 58 40 68 50 68 C60 68 66 58 66 44 C66 50 64 56 60 60 C56 62 44 62 40 60 C36 56 34 50 34 44 Z" fill="#52301e"/>
    <!-- Eyes -->
    <ellipse cx="44" cy="42" rx="2.5" ry="3" fill="#1e293b"/>
    <ellipse cx="56" cy="42" rx="2.5" ry="3" fill="#1e293b"/>
    <circle cx="45" cy="41" r="0.8" fill="#ffffff"/>
    <circle cx="57" cy="41" r="0.8" fill="#ffffff"/>
    <path d="M41 36 Q44 34 47 36" stroke="#3e2417" stroke-width="1.4" fill="none"/>
    <path d="M53 36 Q56 34 59 36" stroke="#3e2417" stroke-width="1.4" fill="none"/>
    <path d="M50 43 L50 48" stroke="#e0a58a" stroke-width="1.5" stroke-linecap="round"/>
    <path d="M46 54 Q50 57 54 54" stroke="#ffffff" stroke-width="1.8" fill="none" stroke-linecap="round"/>
  </g>
  <circle cx="50" cy="50" r="48" fill="none" stroke="#ffffff" stroke-width="3"/>
</svg>
